<svg xmlns="http://www.w3.org/2000/svg" viewBox="0 0 720 420"><rect width="720" height="420" rx="28" fill="#082338"/><defs><linearGradient id="g" x1="0" x2="1"><stop stop-color="#0d8f4f"/><stop offset="1" stop-color="#b9d53f"/></linearGradient></defs><g transform="translate(120 130) rotate(-8)"><rect width="88" height="88" rx="12" fill="url(#g)"/><rect x="98" width="88" height="88" rx="12" fill="#1ea35e"/><rect x="196" width="88" height="88" rx="12" fill="#d5a83d"/><rect y="98" width="88" height="88" rx="12" fill="#169757"/><rect x="98" y="98" width="88" height="88" rx="12" fill="#93c83f"/><rect x="196" y="98" width="88" height="88" rx="12" fill="#2fae6b"/></g><g fill="none" stroke="#dff7ff" stroke-width="8" stroke-linecap="round"><path d="M488 104h92"/><path d="M534 62v84"/></g><circle cx="446" cy="104" r="34" fill="none" stroke="#dff7ff" stroke-width="8"/><circle cx="622" cy="104" r="34" fill="none" stroke="#dff7ff" stroke-width="8"/><rect x="488" y="88" width="92" height="34" rx="17" fill="#dff7ff"/><path d="M180 330 C258 268 326 318 406 252 C478 194 536 225 616 172" fill="none" stroke="#00C2A8" stroke-width="7" stroke-linecap="round"/><text x="74" y="74" fill="#fff" font-family="Arial" font-size="30" font-weight="700">Agricultura 5.0</text><text x="74" y="108" fill="#8fb4c8" font-family="Arial" font-size="20">Drones · IoT · Satelite · IA</text></svg>