<svg xmlns="http://www.w3.org/2000/svg" viewBox="0 0 720 420"><rect width="720" height="420" rx="28" fill="#071827"/><rect x="42" y="40" width="636" height="340" rx="22" fill="#0b2238" stroke="#1d4058"/><text x="74" y="92" fill="#dff7ff" font-family="Arial" font-size="24" font-weight="700">ALVENT FINANZAS</text><rect x="74" y="122" width="160" height="82" rx="14" fill="#102e48"/><rect x="260" y="122" width="160" height="82" rx="14" fill="#102e48"/><rect x="446" y="122" width="160" height="82" rx="14" fill="#102e48"/><text x="94" y="154" fill="#8fb4c8" font-family="Arial" font-size="18">VAN</text><text x="94" y="184" fill="#fff" font-family="Arial" font-size="30" font-weight="700">S/ 1.25M</text><text x="280" y="154" fill="#8fb4c8" font-family="Arial" font-size="18">TIR</text><text x="280" y="184" fill="#fff" font-family="Arial" font-size="30" font-weight="700">18.6%</text><text x="466" y="154" fill="#8fb4c8" font-family="Arial" font-size="18">Riesgo</text><text x="466" y="184" fill="#fff" font-family="Arial" font-size="30" font-weight="700">Bajo</text><path d="M84 320 C145 260 196 292 250 238 C310 178 360 260 420 205 C488 142 540 180 620 118" fill="none" stroke="#13a05f" stroke-width="8" stroke-linecap="round"/><path d="M84 340 C162 310 215 325 285 282 C342 246 392 286 458 250 C530 212 575 220 620 190" fill="none" stroke="#2377b8" stroke-width="6" stroke-linecap="round" opacity=".85"/></svg>